# xmcd CD database file
#
# Track frame offsets:
#	150
#	23658
#	45108
#	66041
#	82837
#	97120
#	113318
#	141493
#	156643
#	176893
#	196592
#	217791
#
# Disc length: 3183 seconds
#
# Revision: 1
# Processed by: cddbd v1.5.2PL0 Copyright (c) Steve Scherf et al.
# Submitted via: CDex 1.70beta3
#
DISCID=930c6d0c
DTITLE=Joscho Stephan and Helmut Eisel Quartett - Bei Dir War Es Immer So Schoen
DYEAR=2016
DGENRE=Jazz
TTITLE0=Anniversary Song
TTITLE1=Babsis Decision
TTITLE2=Sunflower
TTITLE3=Sammys Freilach
TTITLE4=China Boy
TTITLE5=Createur Immobilier
TTITLE6=Bei Dir War Es Immer So Schoen
TTITLE7=Funky Waltz
TTITLE8=Heavy Rain
TTITLE9=If I Were A Rich Man
TTITLE10=Daphne
TTITLE11=Antonias Theme
EXTD=YEAR: 2016
EXTT0=
EXTT1=
EXTT2=
EXTT3=
EXTT4=
EXTT5=
EXTT6=
EXTT7=
EXTT8=
EXTT9=
EXTT10=
EXTT11=
PLAYORDER=
